<mxfile host="Electron" modified="2023-07-03T00:25:08.685Z" agent="Mozilla/5.0 (Windows NT 10.0; Win64; x64) AppleWebKit/537.36 (KHTML, like Gecko) draw.io/21.5.1 Chrome/112.0.5615.204 Electron/24.6.0 Safari/537.36" etag="W1OjNwWpmVYiYgKtOxEB" version="21.5.1" type="device">
  <diagram id="R2lEEEUBdFMjLlhIrx00" name="Page-1">
    <mxGraphModel dx="2094" dy="1187" grid="1" gridSize="10" guides="1" tooltips="1" connect="1" arrows="1" fold="1" page="1" pageScale="1" pageWidth="850" pageHeight="1100" math="0" shadow="0" extFonts="Permanent Marker^https://fonts.googleapis.com/css?family=Permanent+Marker">
      <root>
        <mxCell id="0" />
        <mxCell id="1" parent="0" />
        <mxCell id="G-yLA5hONZAWw3ku6D0X-56" style="edgeStyle=orthogonalEdgeStyle;rounded=0;orthogonalLoop=1;jettySize=auto;html=1;exitX=0.5;exitY=0;exitDx=0;exitDy=0;entryX=0.5;entryY=1;entryDx=0;entryDy=0;" edge="1" parent="1" source="G-yLA5hONZAWw3ku6D0X-3" target="G-yLA5hONZAWw3ku6D0X-48">
          <mxGeometry relative="1" as="geometry" />
        </mxCell>
        <mxCell id="G-yLA5hONZAWw3ku6D0X-69" style="edgeStyle=orthogonalEdgeStyle;rounded=0;orthogonalLoop=1;jettySize=auto;html=1;exitX=0.5;exitY=0;exitDx=0;exitDy=0;entryX=1;entryY=0.5;entryDx=0;entryDy=0;" edge="1" parent="1" source="G-yLA5hONZAWw3ku6D0X-3" target="G-yLA5hONZAWw3ku6D0X-52">
          <mxGeometry relative="1" as="geometry" />
        </mxCell>
        <mxCell id="G-yLA5hONZAWw3ku6D0X-70" style="edgeStyle=orthogonalEdgeStyle;rounded=0;orthogonalLoop=1;jettySize=auto;html=1;exitX=0.5;exitY=0;exitDx=0;exitDy=0;entryX=1;entryY=0.5;entryDx=0;entryDy=0;" edge="1" parent="1" source="G-yLA5hONZAWw3ku6D0X-3" target="G-yLA5hONZAWw3ku6D0X-54">
          <mxGeometry relative="1" as="geometry" />
        </mxCell>
        <mxCell id="G-yLA5hONZAWw3ku6D0X-71" style="edgeStyle=orthogonalEdgeStyle;rounded=0;orthogonalLoop=1;jettySize=auto;html=1;exitX=0;exitY=0.5;exitDx=0;exitDy=0;entryX=1;entryY=0.5;entryDx=0;entryDy=0;" edge="1" parent="1" source="G-yLA5hONZAWw3ku6D0X-3" target="G-yLA5hONZAWw3ku6D0X-55">
          <mxGeometry relative="1" as="geometry" />
        </mxCell>
        <mxCell id="G-yLA5hONZAWw3ku6D0X-3" value="Producto" style="whiteSpace=wrap;html=1;align=center;" vertex="1" parent="1">
          <mxGeometry x="90" y="180" width="100" height="40" as="geometry" />
        </mxCell>
        <mxCell id="G-yLA5hONZAWw3ku6D0X-37" value="" style="edgeStyle=orthogonalEdgeStyle;rounded=0;orthogonalLoop=1;jettySize=auto;html=1;" edge="1" parent="1" source="G-yLA5hONZAWw3ku6D0X-4" target="G-yLA5hONZAWw3ku6D0X-5">
          <mxGeometry relative="1" as="geometry" />
        </mxCell>
        <mxCell id="G-yLA5hONZAWw3ku6D0X-47" style="edgeStyle=orthogonalEdgeStyle;rounded=0;orthogonalLoop=1;jettySize=auto;html=1;exitX=0.5;exitY=1;exitDx=0;exitDy=0;entryX=0.5;entryY=-0.1;entryDx=0;entryDy=0;entryPerimeter=0;" edge="1" parent="1" source="G-yLA5hONZAWw3ku6D0X-4" target="G-yLA5hONZAWw3ku6D0X-42">
          <mxGeometry relative="1" as="geometry" />
        </mxCell>
        <mxCell id="G-yLA5hONZAWw3ku6D0X-50" style="edgeStyle=orthogonalEdgeStyle;rounded=0;orthogonalLoop=1;jettySize=auto;html=1;exitX=0;exitY=0.5;exitDx=0;exitDy=0;entryX=1;entryY=0.5;entryDx=0;entryDy=0;" edge="1" parent="1" source="G-yLA5hONZAWw3ku6D0X-4" target="G-yLA5hONZAWw3ku6D0X-49">
          <mxGeometry relative="1" as="geometry" />
        </mxCell>
        <mxCell id="G-yLA5hONZAWw3ku6D0X-57" style="edgeStyle=orthogonalEdgeStyle;rounded=0;orthogonalLoop=1;jettySize=auto;html=1;exitX=0.5;exitY=0;exitDx=0;exitDy=0;entryX=0;entryY=0.5;entryDx=0;entryDy=0;" edge="1" parent="1" source="G-yLA5hONZAWw3ku6D0X-4" target="G-yLA5hONZAWw3ku6D0X-12">
          <mxGeometry relative="1" as="geometry" />
        </mxCell>
        <mxCell id="G-yLA5hONZAWw3ku6D0X-66" style="edgeStyle=orthogonalEdgeStyle;rounded=0;orthogonalLoop=1;jettySize=auto;html=1;exitX=0.5;exitY=0;exitDx=0;exitDy=0;entryX=0;entryY=0.5;entryDx=0;entryDy=0;" edge="1" parent="1" source="G-yLA5hONZAWw3ku6D0X-4" target="G-yLA5hONZAWw3ku6D0X-11">
          <mxGeometry relative="1" as="geometry" />
        </mxCell>
        <mxCell id="G-yLA5hONZAWw3ku6D0X-67" style="edgeStyle=orthogonalEdgeStyle;rounded=0;orthogonalLoop=1;jettySize=auto;html=1;exitX=1;exitY=0.5;exitDx=0;exitDy=0;entryX=0;entryY=0.5;entryDx=0;entryDy=0;" edge="1" parent="1" source="G-yLA5hONZAWw3ku6D0X-4" target="G-yLA5hONZAWw3ku6D0X-6">
          <mxGeometry relative="1" as="geometry" />
        </mxCell>
        <mxCell id="G-yLA5hONZAWw3ku6D0X-4" value="Cliente" style="whiteSpace=wrap;html=1;align=center;" vertex="1" parent="1">
          <mxGeometry x="490" y="180" width="100" height="40" as="geometry" />
        </mxCell>
        <mxCell id="G-yLA5hONZAWw3ku6D0X-5" value="ID" style="ellipse;whiteSpace=wrap;html=1;align=center;fontStyle=4;" vertex="1" parent="1">
          <mxGeometry x="490" y="10" width="100" height="40" as="geometry" />
        </mxCell>
        <mxCell id="G-yLA5hONZAWw3ku6D0X-9" value="" style="edgeStyle=orthogonalEdgeStyle;rounded=0;orthogonalLoop=1;jettySize=auto;html=1;" edge="1" parent="1" source="G-yLA5hONZAWw3ku6D0X-6" target="G-yLA5hONZAWw3ku6D0X-8">
          <mxGeometry relative="1" as="geometry" />
        </mxCell>
        <mxCell id="G-yLA5hONZAWw3ku6D0X-68" style="edgeStyle=orthogonalEdgeStyle;rounded=0;orthogonalLoop=1;jettySize=auto;html=1;exitX=0.5;exitY=1;exitDx=0;exitDy=0;entryX=0;entryY=0.5;entryDx=0;entryDy=0;" edge="1" parent="1" source="G-yLA5hONZAWw3ku6D0X-6" target="G-yLA5hONZAWw3ku6D0X-7">
          <mxGeometry relative="1" as="geometry" />
        </mxCell>
        <mxCell id="G-yLA5hONZAWw3ku6D0X-6" value="Nombre &lt;br&gt;Completo" style="ellipse;whiteSpace=wrap;html=1;align=center;" vertex="1" parent="1">
          <mxGeometry x="640" y="175" width="110" height="50" as="geometry" />
        </mxCell>
        <mxCell id="G-yLA5hONZAWw3ku6D0X-7" value="Apellido" style="ellipse;whiteSpace=wrap;html=1;align=center;" vertex="1" parent="1">
          <mxGeometry x="790" y="230" width="100" height="40" as="geometry" />
        </mxCell>
        <mxCell id="G-yLA5hONZAWw3ku6D0X-8" value="Nombre" style="ellipse;whiteSpace=wrap;html=1;align=center;" vertex="1" parent="1">
          <mxGeometry x="790" y="180" width="100" height="40" as="geometry" />
        </mxCell>
        <mxCell id="G-yLA5hONZAWw3ku6D0X-11" value="Edad" style="ellipse;whiteSpace=wrap;html=1;align=center;" vertex="1" parent="1">
          <mxGeometry x="605" y="110" width="100" height="40" as="geometry" />
        </mxCell>
        <mxCell id="G-yLA5hONZAWw3ku6D0X-12" value="email" style="ellipse;whiteSpace=wrap;html=1;align=center;" vertex="1" parent="1">
          <mxGeometry x="580" y="50" width="100" height="40" as="geometry" />
        </mxCell>
        <mxCell id="G-yLA5hONZAWw3ku6D0X-58" style="edgeStyle=orthogonalEdgeStyle;rounded=0;orthogonalLoop=1;jettySize=auto;html=1;exitX=0;exitY=0.5;exitDx=0;exitDy=0;entryX=1;entryY=0.5;entryDx=0;entryDy=0;" edge="1" parent="1" source="G-yLA5hONZAWw3ku6D0X-14" target="G-yLA5hONZAWw3ku6D0X-22">
          <mxGeometry relative="1" as="geometry" />
        </mxCell>
        <mxCell id="G-yLA5hONZAWw3ku6D0X-60" style="edgeStyle=orthogonalEdgeStyle;rounded=0;orthogonalLoop=1;jettySize=auto;html=1;exitX=1;exitY=0.5;exitDx=0;exitDy=0;entryX=0;entryY=0.5;entryDx=0;entryDy=0;" edge="1" parent="1" source="G-yLA5hONZAWw3ku6D0X-14" target="G-yLA5hONZAWw3ku6D0X-17">
          <mxGeometry relative="1" as="geometry" />
        </mxCell>
        <mxCell id="G-yLA5hONZAWw3ku6D0X-61" style="edgeStyle=orthogonalEdgeStyle;rounded=0;orthogonalLoop=1;jettySize=auto;html=1;exitX=0.5;exitY=1;exitDx=0;exitDy=0;entryX=0;entryY=0.5;entryDx=0;entryDy=0;" edge="1" parent="1" source="G-yLA5hONZAWw3ku6D0X-14" target="G-yLA5hONZAWw3ku6D0X-18">
          <mxGeometry relative="1" as="geometry" />
        </mxCell>
        <mxCell id="G-yLA5hONZAWw3ku6D0X-62" style="edgeStyle=orthogonalEdgeStyle;rounded=0;orthogonalLoop=1;jettySize=auto;html=1;exitX=0.5;exitY=1;exitDx=0;exitDy=0;entryX=0;entryY=0.5;entryDx=0;entryDy=0;" edge="1" parent="1" source="G-yLA5hONZAWw3ku6D0X-14" target="G-yLA5hONZAWw3ku6D0X-19">
          <mxGeometry relative="1" as="geometry" />
        </mxCell>
        <mxCell id="G-yLA5hONZAWw3ku6D0X-63" style="edgeStyle=orthogonalEdgeStyle;rounded=0;orthogonalLoop=1;jettySize=auto;html=1;exitX=0.5;exitY=1;exitDx=0;exitDy=0;entryX=0;entryY=0.5;entryDx=0;entryDy=0;" edge="1" parent="1" source="G-yLA5hONZAWw3ku6D0X-14" target="G-yLA5hONZAWw3ku6D0X-20">
          <mxGeometry relative="1" as="geometry" />
        </mxCell>
        <mxCell id="G-yLA5hONZAWw3ku6D0X-64" style="edgeStyle=orthogonalEdgeStyle;rounded=0;orthogonalLoop=1;jettySize=auto;html=1;exitX=0.5;exitY=1;exitDx=0;exitDy=0;entryX=1;entryY=0.5;entryDx=0;entryDy=0;" edge="1" parent="1" source="G-yLA5hONZAWw3ku6D0X-14" target="G-yLA5hONZAWw3ku6D0X-21">
          <mxGeometry relative="1" as="geometry" />
        </mxCell>
        <mxCell id="G-yLA5hONZAWw3ku6D0X-65" style="edgeStyle=orthogonalEdgeStyle;rounded=0;orthogonalLoop=1;jettySize=auto;html=1;exitX=0.5;exitY=1;exitDx=0;exitDy=0;entryX=1;entryY=0.5;entryDx=0;entryDy=0;" edge="1" parent="1" source="G-yLA5hONZAWw3ku6D0X-14" target="G-yLA5hONZAWw3ku6D0X-16">
          <mxGeometry relative="1" as="geometry" />
        </mxCell>
        <mxCell id="G-yLA5hONZAWw3ku6D0X-14" value="DirecciÃ³n" style="shape=ext;margin=3;double=1;whiteSpace=wrap;html=1;align=center;" vertex="1" parent="1">
          <mxGeometry x="530" y="450" width="100" height="40" as="geometry" />
        </mxCell>
        <mxCell id="G-yLA5hONZAWw3ku6D0X-16" value="CP" style="ellipse;whiteSpace=wrap;html=1;align=center;" vertex="1" parent="1">
          <mxGeometry x="425" y="600" width="100" height="40" as="geometry" />
        </mxCell>
        <mxCell id="G-yLA5hONZAWw3ku6D0X-17" value="Calle" style="ellipse;whiteSpace=wrap;html=1;align=center;" vertex="1" parent="1">
          <mxGeometry x="705" y="450" width="100" height="40" as="geometry" />
        </mxCell>
        <mxCell id="G-yLA5hONZAWw3ku6D0X-18" value="Num. Exterior" style="ellipse;whiteSpace=wrap;html=1;align=center;" vertex="1" parent="1">
          <mxGeometry x="670" y="510" width="100" height="40" as="geometry" />
        </mxCell>
        <mxCell id="G-yLA5hONZAWw3ku6D0X-20" value="Colonia" style="ellipse;whiteSpace=wrap;html=1;align=center;" vertex="1" parent="1">
          <mxGeometry x="600" y="630" width="100" height="40" as="geometry" />
        </mxCell>
        <mxCell id="G-yLA5hONZAWw3ku6D0X-21" value="AlcaldÃ­a o Municipio" style="ellipse;whiteSpace=wrap;html=1;align=center;" vertex="1" parent="1">
          <mxGeometry x="360" y="540" width="100" height="40" as="geometry" />
        </mxCell>
        <mxCell id="G-yLA5hONZAWw3ku6D0X-22" value="Estado" style="ellipse;whiteSpace=wrap;html=1;align=center;" vertex="1" parent="1">
          <mxGeometry x="320" y="490" width="100" height="40" as="geometry" />
        </mxCell>
        <mxCell id="G-yLA5hONZAWw3ku6D0X-19" value="Num. Interior" style="ellipse;whiteSpace=wrap;html=1;align=center;" vertex="1" parent="1">
          <mxGeometry x="640" y="570" width="100" height="40" as="geometry" />
        </mxCell>
        <mxCell id="G-yLA5hONZAWw3ku6D0X-42" value="Tiene" style="shape=rhombus;double=1;perimeter=rhombusPerimeter;whiteSpace=wrap;html=1;align=center;" vertex="1" parent="1">
          <mxGeometry x="480" y="360" width="120" height="60" as="geometry" />
        </mxCell>
        <mxCell id="G-yLA5hONZAWw3ku6D0X-44" value="" style="shape=link;html=1;rounded=0;entryX=0.5;entryY=0;entryDx=0;entryDy=0;exitX=0.5;exitY=1;exitDx=0;exitDy=0;edgeStyle=orthogonalEdgeStyle;" edge="1" parent="1" source="G-yLA5hONZAWw3ku6D0X-42" target="G-yLA5hONZAWw3ku6D0X-14">
          <mxGeometry relative="1" as="geometry">
            <mxPoint x="300" y="400" as="sourcePoint" />
            <mxPoint x="420" y="400" as="targetPoint" />
          </mxGeometry>
        </mxCell>
        <mxCell id="G-yLA5hONZAWw3ku6D0X-45" value="" style="resizable=0;html=1;whiteSpace=wrap;align=right;verticalAlign=bottom;" connectable="0" vertex="1" parent="G-yLA5hONZAWw3ku6D0X-44">
          <mxGeometry x="1" relative="1" as="geometry" />
        </mxCell>
        <mxCell id="G-yLA5hONZAWw3ku6D0X-48" value="ID" style="ellipse;whiteSpace=wrap;html=1;align=center;fontStyle=4;" vertex="1" parent="1">
          <mxGeometry x="90" y="50" width="100" height="40" as="geometry" />
        </mxCell>
        <mxCell id="G-yLA5hONZAWw3ku6D0X-51" style="edgeStyle=orthogonalEdgeStyle;rounded=0;orthogonalLoop=1;jettySize=auto;html=1;exitX=0;exitY=0.5;exitDx=0;exitDy=0;entryX=1;entryY=0.5;entryDx=0;entryDy=0;" edge="1" parent="1" source="G-yLA5hONZAWw3ku6D0X-49" target="G-yLA5hONZAWw3ku6D0X-3">
          <mxGeometry relative="1" as="geometry" />
        </mxCell>
        <mxCell id="G-yLA5hONZAWw3ku6D0X-74" style="edgeStyle=orthogonalEdgeStyle;rounded=0;orthogonalLoop=1;jettySize=auto;html=1;exitX=0.5;exitY=0;exitDx=0;exitDy=0;entryX=0.5;entryY=1;entryDx=0;entryDy=0;" edge="1" parent="1" source="G-yLA5hONZAWw3ku6D0X-49" target="G-yLA5hONZAWw3ku6D0X-73">
          <mxGeometry relative="1" as="geometry" />
        </mxCell>
        <mxCell id="G-yLA5hONZAWw3ku6D0X-75" style="edgeStyle=orthogonalEdgeStyle;rounded=0;orthogonalLoop=1;jettySize=auto;html=1;exitX=0.5;exitY=0;exitDx=0;exitDy=0;entryX=1;entryY=0.5;entryDx=0;entryDy=0;" edge="1" parent="1" source="G-yLA5hONZAWw3ku6D0X-49" target="G-yLA5hONZAWw3ku6D0X-72">
          <mxGeometry relative="1" as="geometry" />
        </mxCell>
        <mxCell id="G-yLA5hONZAWw3ku6D0X-78" style="edgeStyle=orthogonalEdgeStyle;rounded=0;orthogonalLoop=1;jettySize=auto;html=1;exitX=0.5;exitY=0;exitDx=0;exitDy=0;entryX=0;entryY=0.5;entryDx=0;entryDy=0;" edge="1" parent="1" source="G-yLA5hONZAWw3ku6D0X-49" target="G-yLA5hONZAWw3ku6D0X-76">
          <mxGeometry relative="1" as="geometry" />
        </mxCell>
        <mxCell id="G-yLA5hONZAWw3ku6D0X-49" value="Compra" style="shape=rhombus;perimeter=rhombusPerimeter;whiteSpace=wrap;html=1;align=center;" vertex="1" parent="1">
          <mxGeometry x="280" y="170" width="120" height="60" as="geometry" />
        </mxCell>
        <mxCell id="G-yLA5hONZAWw3ku6D0X-52" value="DescripciÃ³n" style="ellipse;whiteSpace=wrap;html=1;align=center;fontStyle=0" vertex="1" parent="1">
          <mxGeometry y="90" width="100" height="40" as="geometry" />
        </mxCell>
        <mxCell id="G-yLA5hONZAWw3ku6D0X-54" value="CategorÃ­a" style="ellipse;whiteSpace=wrap;html=1;align=center;" vertex="1" parent="1">
          <mxGeometry x="-60" y="130" width="100" height="40" as="geometry" />
        </mxCell>
        <mxCell id="G-yLA5hONZAWw3ku6D0X-55" value="Precio" style="ellipse;whiteSpace=wrap;html=1;align=center;" vertex="1" parent="1">
          <mxGeometry x="-60" y="180" width="100" height="40" as="geometry" />
        </mxCell>
        <mxCell id="G-yLA5hONZAWw3ku6D0X-72" value="ID" style="ellipse;whiteSpace=wrap;html=1;align=center;fontStyle=4;" vertex="1" parent="1">
          <mxGeometry x="200" y="130" width="100" height="40" as="geometry" />
        </mxCell>
        <mxCell id="G-yLA5hONZAWw3ku6D0X-73" value="Fecha" style="ellipse;whiteSpace=wrap;html=1;align=center;" vertex="1" parent="1">
          <mxGeometry x="290" y="80" width="100" height="40" as="geometry" />
        </mxCell>
        <mxCell id="G-yLA5hONZAWw3ku6D0X-76" value="Fecha de &lt;br&gt;entrega" style="ellipse;whiteSpace=wrap;html=1;align=center;" vertex="1" parent="1">
          <mxGeometry x="375" y="130" width="100" height="40" as="geometry" />
        </mxCell>
        <mxCell id="G-yLA5hONZAWw3ku6D0X-77" style="edgeStyle=orthogonalEdgeStyle;rounded=0;orthogonalLoop=1;jettySize=auto;html=1;exitX=0.5;exitY=1;exitDx=0;exitDy=0;" edge="1" parent="1" source="G-yLA5hONZAWw3ku6D0X-76" target="G-yLA5hONZAWw3ku6D0X-76">
          <mxGeometry relative="1" as="geometry" />
        </mxCell>
      </root>
    </mxGraphModel>
  </diagram>
</mxfile>
